<?xml version="1.0" encoding="utf-8"?>
<!-- Generator: Adobe Illustrator 16.0.3, SVG Export Plug-In . SVG Version: 6.00 Build 0)  -->
<!DOCTYPE svg PUBLIC "-//W3C//DTD SVG 1.1//EN" "http://www.w3.org/Graphics/SVG/1.1/DTD/svg11.dtd">
<svg version="1.1" xmlns="http://www.w3.org/2000/svg" xmlns:xlink="http://www.w3.org/1999/xlink" x="0px" y="0px" width="400px"
	 height="400px" viewBox="0 0 400 400" enable-background="new 0 0 400 400" xml:space="preserve">
<g id="Rectángulo_redondeado_1_1_" enable-background="new    ">
	<g id="Rectángulo_redondeado_1">
		<g>
			<path fill-rule="evenodd" clip-rule="evenodd" fill="#BAB48F" d="M360,0H40C17.909,0,0,17.908,0,40v320c0,22.092,17.909,40,40,40
				h320c22.092,0,40-17.908,40-40V40C400,17.908,382.092,0,360,0z"/>
		</g>
	</g>
</g>
<g id="Rectángulo_redondeado_7_copia_1_" enable-background="new    ">
	<g id="Rectángulo_redondeado_7_copia">
		<g>
			<path fill-rule="evenodd" clip-rule="evenodd" fill="#A7A179" d="M94,302H5c-2.761,0-5,2.238-5,5v48c0,24.853,20.147,45,45,45h49
				c2.761,0,5-2.238,5-5v-88C99,304.238,96.761,302,94,302z M396,303h-89c-2.762,0-5,2.238-5,5v88c0,1.644,0.804,3.089,2.027,4H355
				c24.853,0,45-20.147,45-45v-49.973C399.089,303.804,397.644,303,396,303z"/>
		</g>
	</g>
</g>
<g id="Rectángulo_redondeado_6_1_" enable-background="new    ">
	<g id="Rectángulo_redondeado_6">
		<g>
			<path fill-rule="evenodd" clip-rule="evenodd" fill="#383838" d="M149,156c0-2.762-2.239-5-5-5H52c-2.761,0-5,2.238-5,5v91
				c0,2.762,2.239,5,5,5h92c2.761,0,5-2.238,5-5V156z M346,151h-92c-2.762,0-5,2.238-5,5v91c0,2.762,2.238,5,5,5h92
				c2.762,0,5-2.238,5-5v-91C351,153.238,348.762,151,346,151z M246,251h-93c-2.761,0-5,2.238-5,5v42c0,2.762,2.239,5,5,5h93
				c2.762,0,5-2.238,5-5v-42C251,253.238,248.762,251,246,251z"/>
		</g>
	</g>
</g>
</svg>
